HIERARCHY
ROOT Hips
{
	OFFSET 0.000000 0.000000 0.000000
	CHANNELS 6 Xposition Yposition Zposition Zrotation Yrotation Xrotation 
	JOINT LHipJoint
	{
		OFFSET 0.000000 0.000000 0.000000
		CHANNELS 3 Zrotation Yrotation Xrotation
		JOINT LeftUpLeg
		{
			OFFSET 1.363060 -1.794630 0.839290
			CHANNELS 3 Zrotation Yrotation Xrotation
			JOINT LeftLeg
			{
				OFFSET 2.448110 -6.726130 0.000000
				CHANNELS 3 Zrotation Yrotation Xrotation
				JOINT LeftFoot
				{
					OFFSET 2.562200 -7.039590 0.000000
					CHANNELS 3 Zrotation Yrotation Xrotation
					JOINT LeftToeBase
					{
						OFFSET 0.157640 -0.433110 2.322550
						CHANNELS 3 Zrotation Yrotation Xrotation
						End Site
						{
							OFFSET 0.000000 0.000000 0.000000
						}
					}
				}
			}
		}
	}
	JOINT RHipJoint
	{
		OFFSET 0.000000 0.000000 0.000000
		CHANNELS 3 Zrotation Yrotation Xrotation
		JOINT RightUpLeg
		{
			OFFSET -1.305520 -1.794630 0.839290
			CHANNELS 3 Zrotation Yrotation Xrotation
			JOINT RightLeg
			{
				OFFSET -2.542530 -6.985550 0.000000
				CHANNELS 3 Zrotation Yrotation Xrotation
				JOINT RightFoot
				{
					OFFSET -2.568260 -7.056230 0.000000
					CHANNELS 3 Zrotation Yrotation Xrotation
					JOINT RightToeBase
					{
						OFFSET -0.164730 -0.452590 2.363150
						CHANNELS 3 Zrotation Yrotation Xrotation
						End Site
						{
							OFFSET 0.000000 0.000000 0.000000
						}
					}
				}
			}
		}
	}
	JOINT LowerBack
	{
		OFFSET 0.000000 0.000000 0.000000
		CHANNELS 3 Zrotation Yrotation Xrotation
		JOINT Spine
		{
			OFFSET 0.028270 2.035590 -0.193380
			CHANNELS 3 Zrotation Yrotation Xrotation
			JOINT Spine1
			{
				OFFSET 0.056720 2.048850 -0.042750
				CHANNELS 3 Zrotation Yrotation Xrotation
				JOINT Neck
				{
					OFFSET 0.000000 0.000000 0.000000
					CHANNELS 3 Zrotation Yrotation Xrotation
					JOINT Neck1
					{
						OFFSET -0.054170 1.746240 0.172020
						CHANNELS 3 Zrotation Yrotation Xrotation
						JOINT Head
						{
							OFFSET 0.104070 1.761360 -0.123970
							CHANNELS 3 Zrotation Yrotation Xrotation
							End Site
							{
								OFFSET 0.000000 0.000000 0.000000
							}
						}
					}
				}
				JOINT LeftShoulder
				{
					OFFSET 0.000000 0.000000 0.000000
					CHANNELS 3 Zrotation Yrotation Xrotation
					JOINT LeftArm
					{
						OFFSET 3.362410 1.200890 -0.311210
						CHANNELS 3 Zrotation Yrotation Xrotation
						JOINT LeftForeArm
						{
							OFFSET 4.983000 -0.000000 -0.000000
							CHANNELS 3 Zrotation Yrotation Xrotation
							JOINT LeftHand
							{
								OFFSET 3.483560 -0.000000 -0.000000
								CHANNELS 3 Zrotation Yrotation Xrotation
								JOINT LeftFingerBase
								{
									OFFSET 0.000000 0.000000 0.000000
									CHANNELS 3 Zrotation Yrotation Xrotation
									JOINT LeftHandIndex1
									{
										OFFSET 0.715260 -0.000000 -0.000000
										CHANNELS 3 Zrotation Yrotation Xrotation
										End Site
										{
											OFFSET 0.000000 0.000000 0.000000
										}
									}
								}
								JOINT LThumb
								{
									OFFSET 0.000000 0.000000 0.000000
									CHANNELS 3 Zrotation Yrotation Xrotation
									End Site
									{
										OFFSET 0.000000 0.000000 0.000000
									}
								}
							}
						}
					}
				}
				JOINT RightShoulder
				{
					OFFSET 0.000000 0.000000 0.000000
					CHANNELS 3 Zrotation Yrotation Xrotation
					JOINT RightArm
					{
						OFFSET -3.136600 1.374050 -0.404650
						CHANNELS 3 Zrotation Yrotation Xrotation
						JOINT RightForeArm
						{
							OFFSET -5.241900 -0.000000 -0.000000
							CHANNELS 3 Zrotation Yrotation Xrotation
							JOINT RightHand
							{
								OFFSET -3.444170 -0.000000 -0.000000
								CHANNELS 3 Zrotation Yrotation Xrotation
								JOINT RightFingerBase
								{
									OFFSET 0.000000 0.000000 0.000000
									CHANNELS 3 Zrotation Yrotation Xrotation
									JOINT RightHandIndex1
									{
										OFFSET -0.622530 -0.000000 -0.000000
										CHANNELS 3 Zrotation Yrotation Xrotation
										End Site
										{
											OFFSET 0.000000 0.000000 0.000000
										}
									}
								}
								JOINT RThumb
								{
									OFFSET 0.000000 0.000000 0.000000
									CHANNELS 3 Zrotation Yrotation Xrotation
									End Site
									{
										OFFSET 0.000000 0.000000 0.000000
									}
								}
							}
						}
					}
				}
			}
		}
	}
}
MOTION
Frames: 6
Frame Time: 0.008333
2.747209 16.461265 -2.215737 97.077046 -73.862155 -103.390554 -2.490907 -5.453718 -0.254072 -4.741939 -8.671946 -133.461971 0.560008 6.613472 74.300253 2.839482 10.964941 -13.967467 -0.640600 0.000000 -37.441800 13.915869 3.228825 -6.000862 -5.980591 1.493326 -4.229389 -0.059626 -4.078847 44.140027 -2.738954 -11.382841 -20.411279 2.266400 0.000000 -58.668999 -14.812938 -1.702457 9.078749 -3.045556 -1.070183 -1.590904 -3.934899 -0.960730 -2.178145 4.872246 -11.335139 -4.695710 -0.678171 -0.089776 0.678984 0.000000 0.000000 0.000000 6.623502 5.244385 -1.351295 -48.121641 35.922501 40.216618 -0.642778 -80.119601 -0.016590 -6.237366 -8.753312 0.490590 0.138016 0.059574 0.000000 0.000000 0.000000 0.000000 0.000000 0.000000 0.000000 -0.039509 -6.526212 0.053410 64.026766 -8.947250 32.000814 0.850852 59.835169 -0.001287 -6.114858 6.393518 -0.354519 0.105806 -0.139941 0.000000 0.000000 0.000000 0.000000 0.000000 0.000000 0.000000 
2.762701 16.452297 -2.215342 97.405484 -74.110396 -103.603061 -2.705560 -5.372769 0.367259 -3.429905 -7.760608 -130.653546 -0.470893 5.820450 65.776559 2.898617 10.678880 -13.743018 -0.509401 -0.000000 -37.644900 13.890991 3.288889 -6.210014 -5.610159 1.660853 -4.137048 -0.027215 -4.131418 44.199846 -2.782530 -11.578615 -20.510227 2.319300 0.000000 -58.210501 -14.610580 -1.588898 8.841992 -3.001605 -0.942992 -1.635742 -3.946799 -0.837573 -2.147130 4.900049 -11.425815 -4.751154 -0.679157 -0.088925 0.664304 0.000000 0.000000 0.000000 6.714101 5.828335 -1.414635 -48.620970 36.421365 39.750477 -0.634268 -80.448750 -0.016603 -6.362781 -8.784922 0.502381 0.139710 0.061506 0.000000 0.000000 0.000000 0.000000 0.000000 0.000000 0.000000 0.027912 -6.546096 0.016857 64.176593 -9.551634 31.709084 0.867349 59.706368 -0.000944 -6.125406 6.393102 -0.355015 0.106978 -0.137764 0.000000 0.000000 0.000000 0.000000 0.000000 0.000000 0.000000 
2.779665 16.450599 -2.216901 97.702933 -74.344849 -103.771423 -2.913421 -5.297682 1.101985 -1.867571 -6.780682 -127.140263 -1.496012 4.777658 55.908664 2.861476 10.066639 -13.102987 -0.281900 0.000000 -38.339900 13.877921 3.370576 -6.458151 -5.288095 1.761359 -3.956783 0.005780 -4.176197 44.086088 -2.813979 -11.717526 -20.500920 2.337200 0.000000 -57.817300 -14.432686 -1.471363 8.554353 -2.966926 -0.812880 -1.688087 -3.967676 -0.712254 -2.106059 4.944174 -11.557216 -4.806504 -0.688439 -0.088693 0.649523 0.000000 0.000000 0.000000 6.770113 6.428177 -1.484574 -49.097632 36.924349 39.151649 -0.624632 -80.806146 -0.016566 -6.464485 -8.838575 0.513575 0.140912 0.063792 0.000000 0.000000 0.000000 0.000000 0.000000 0.000000 0.000000 0.158513 -6.610261 -0.021902 64.319298 -10.102860 31.462117 0.886645 59.536553 -0.000537 -6.118405 6.388114 -0.354310 0.108202 -0.135360 0.000000 0.000000 0.000000 0.000000 0.000000 0.000000 0.000000 
2.797279 16.456820 -2.221043 98.133898 -74.482796 -104.124208 -3.066932 -5.282101 1.909247 0.025055 -5.598918 -122.643826 -2.410332 3.389195 44.566747 2.728294 9.398028 -11.711318 0.074300 0.000000 -39.602700 13.884270 3.476746 -6.739866 -5.091367 1.822905 -3.603774 0.034961 -4.215102 43.770367 -2.826091 -11.763364 -20.364978 2.308200 0.000000 -57.547400 -14.346782 -1.336507 8.244781 -2.958557 -0.666967 -1.740992 -3.997345 -0.571142 -2.058230 5.010670 -11.727089 -4.856918 -0.706824 -0.089186 0.635299 0.000000 0.000000 0.000000 6.790222 7.044903 -1.564368 -49.545097 37.458244 38.411091 -0.614634 -81.180360 -0.016540 -6.545498 -8.909656 0.524271 0.141709 0.065945 -0.000000 0.000000 0.000000 0.000000 0.000000 0.000000 0.000000 0.366572 -6.709452 -0.063160 64.444790 -10.576718 31.294915 0.908396 59.319577 -0.000063 -6.073285 6.380282 -0.351206 0.109149 -0.132793 0.000000 0.000000 0.000000 0.000000 0.000000 0.000000 0.000000 
2.814178 16.471103 -2.227530 98.981027 -74.419008 -105.074901 -3.103944 -5.422376 2.654861 2.419788 -4.012508 -116.778475 -2.986013 1.632337 31.891276 2.541798 9.166224 -9.235077 0.596400 0.000000 -41.112600 13.906552 3.594296 -7.026814 -5.084510 1.913566 -2.932094 0.055449 -4.252154 43.220741 -2.813323 -11.687160 -20.084640 2.223101 0.000000 -57.458700 -14.424850 -1.159031 7.990911 -2.996439 -0.479706 -1.774404 -4.032985 -0.386983 -2.009441 5.096406 -11.928339 -4.896315 -0.733103 -0.090368 0.622352 0.000000 0.000000 0.000000 6.772834 7.690548 -1.657719 -49.968092 38.052209 37.526092 -0.605258 -81.553477 -0.016602 -6.608291 -8.995290 0.534366 0.142234 0.067441 -0.000000 0.000000 0.000000 0.000000 0.000000 0.000000 0.000000 0.647425 -6.819663 -0.107416 64.543973 -10.950038 31.243373 0.931688 59.052905 0.000456 -5.970820 6.371436 -0.344704 0.109444 -0.130227 0.000000 0.000000 0.000000 0.000000 0.000000 0.000000 0.000000 
2.828399 16.492658 -2.234277 100.637885 -74.075162 -107.214922 -3.013328 -5.807261 3.094056 5.549503 -1.901748 -109.278242 -2.935466 -0.220712 18.741430 2.388771 9.910996 -5.561602 1.362701 -0.000000 -42.106200 13.921113 3.680853 -7.255901 -5.231346 2.170767 -1.745931 0.066991 -4.293420 42.401338 -2.779284 -11.502724 -19.646336 2.083800 0.000000 -57.559900 -14.676509 -0.901263 7.916036 -3.086726 -0.211873 -1.756065 -4.067470 -0.118402 -1.968853 5.177788 -12.146583 -4.916915 -0.763072 -0.092021 0.612068 0.000000 0.000000 0.000000 6.700306 8.393833 -1.768842 -50.385841 38.735366 36.503828 -0.597590 -81.902993 -0.016811 -6.656748 -9.090609 0.543957 0.142610 0.067849 -0.000000 0.000000 0.000000 0.000000 0.000000 0.000000 0.000000 0.958885 -6.898770 -0.155299 64.601895 -11.205296 31.344403 0.955378 58.739766 0.000985 -5.794651 6.363430 -0.334108 0.108743 -0.127909 0.000000 0.000000 0.000000 0.000000 0.000000 0.000000 0.000000 
